<?xml version="1.0" encoding="UTF-8"?>
<svg xmlns="http://www.w3.org/2000/svg" xmlns:xlink="http://www.w3.org/1999/xlink" width="157.480315pt" height="62.299905pt" viewBox="0 0 157.480315 62.299905" version="1.1">
<defs>
<clipPath id="clip1">
  <path d="M 7.875 41 L 149.605469 41 L 149.605469 57.9375 L 7.875 57.9375 Z M 7.875 41 "/>
</clipPath>
<clipPath id="clip2">
  <path d="M 7.875 15 L 149.605469 15 L 149.605469 57.9375 L 7.875 57.9375 Z M 7.875 15 "/>
</clipPath>
</defs>
<g id="surface1">
<g clip-path="url(#clip1)" clip-rule="nonzero">
<path style="fill:none;stroke-width:1;stroke-linecap:square;stroke-linejoin:round;stroke:rgb(17.254639%,62.744141%,17.254639%);stroke-opacity:1;stroke-miterlimit:10;" d="M -1 4.424905 L 10.066406 4.624124 L 17.160156 4.948342 L 22.738281 5.397561 L 27.804688 6.022561 L 32.367188 6.807717 L 36.925781 7.835061 L 41.488281 9.116311 L 46.050781 10.639749 L 51.625 12.756936 L 63.28125 17.295999 L 67.335938 18.585061 L 70.882812 19.456155 L 73.925781 19.97178 L 76.964844 20.245217 L 80.007812 20.268655 L 83.046875 20.03428 L 86.089844 19.557717 L 89.128906 18.862405 L 92.675781 17.811624 L 96.730469 16.374124 L 103.320312 13.772561 L 110.921875 10.823342 L 115.484375 9.272561 L 120.046875 7.963967 L 124.605469 6.90928 L 129.167969 6.100686 L 134.238281 5.448342 L 139.8125 4.979592 L 146.402344 4.655374 L 155.523438 4.456155 L 158.480469 4.424905 " transform="matrix(1,0,0,-1,0,62.299905)"/>
</g>
<g clip-path="url(#clip2)" clip-rule="nonzero">
<path style="fill:none;stroke-width:1;stroke-linecap:square;stroke-linejoin:round;stroke:rgb(83.920288%,15.293884%,15.686035%);stroke-opacity:1;stroke-miterlimit:10;" d="M -1 4.362405 L 72.40625 4.460061 L 75.445312 4.663186 L 77.980469 5.061624 L 80.007812 5.647561 L 81.527344 6.335061 L 83.046875 7.299905 L 84.570312 8.620217 L 86.089844 10.362405 L 87.609375 12.585061 L 89.128906 15.319436 L 90.652344 18.56553 L 92.675781 23.581155 L 96.226562 33.331155 L 98.253906 38.569436 L 99.773438 41.87803 L 100.785156 43.643655 L 101.800781 44.987405 L 102.8125 45.862405 L 103.320312 46.112405 L 103.828125 46.233499 L 104.335938 46.225686 L 104.839844 46.085061 L 105.347656 45.819436 L 106.363281 44.917092 L 107.375 43.545999 L 108.390625 41.75303 L 109.910156 38.417092 L 111.9375 33.155374 L 116.5 20.831155 L 118.019531 17.292092 L 119.539062 14.233499 L 121.058594 11.694436 L 122.582031 9.655374 L 124.101562 8.081155 L 125.621094 6.901467 L 127.140625 6.049905 L 128.660156 5.452249 L 130.6875 4.944436 L 133.222656 4.608499 L 136.769531 4.428811 L 143.867188 4.362405 L 158.480469 4.362405 " transform="matrix(1,0,0,-1,0,62.299905)"/>
</g>
<path style="fill:none;stroke-width:1;stroke-linecap:butt;stroke-linejoin:round;stroke:rgb(0%,0%,0%);stroke-opacity:1;stroke-miterlimit:10;" d="M 78.738281 4.362405 L 78.738281 7.862405 " transform="matrix(1,0,0,-1,0,62.299905)"/>
<path style="fill:none;stroke-width:1;stroke-linecap:square;stroke-linejoin:miter;stroke:rgb(0%,0%,0%);stroke-opacity:1;stroke-miterlimit:10;" d="M 7.875 4.362405 L 149.605469 4.362405 " transform="matrix(1,0,0,-1,0,62.299905)"/>
<path style=" stroke:none;fill-rule:nonzero;fill:rgb(83.920288%,15.293884%,15.686035%);fill-opacity:1;" d="M 94.9375 59.742188 C 95.417969 59.742188 95.875 59.550781 96.210938 59.214844 C 96.550781 58.875 96.742188 58.417969 96.742188 57.9375 C 96.742188 57.460938 96.550781 57.003906 96.210938 56.664062 C 95.875 56.324219 95.417969 56.136719 94.9375 56.136719 C 94.460938 56.136719 94 56.324219 93.664062 56.664062 C 93.324219 57.003906 93.136719 57.460938 93.136719 57.9375 C 93.136719 58.417969 93.324219 58.875 93.664062 59.214844 C 94 59.550781 94.460938 59.742188 94.9375 59.742188 Z M 94.9375 59.742188 "/>
<path style=" stroke:none;fill-rule:nonzero;fill:rgb(83.920288%,15.293884%,15.686035%);fill-opacity:1;" d="M 113.160156 59.742188 C 113.640625 59.742188 114.097656 59.550781 114.4375 59.214844 C 114.773438 58.875 114.964844 58.417969 114.964844 57.9375 C 114.964844 57.460938 114.773438 57.003906 114.4375 56.664062 C 114.097656 56.324219 113.640625 56.136719 113.160156 56.136719 C 112.683594 56.136719 112.222656 56.324219 111.886719 56.664062 C 111.546875 57.003906 111.359375 57.460938 111.359375 57.9375 C 111.359375 58.417969 111.546875 58.875 111.886719 59.214844 C 112.222656 59.550781 112.683594 59.742188 113.160156 59.742188 Z M 113.160156 59.742188 "/>
</g>
</svg>
