<?xml version="1.0" encoding="UTF-8"?>
<svg xmlns="http://www.w3.org/2000/svg" xmlns:xlink="http://www.w3.org/1999/xlink" width="157.480315pt" height="62.299905pt" viewBox="0 0 157.480315 62.299905" version="1.1">
<defs>
<clipPath id="clip1">
  <path d="M 7.875 41 L 149.605469 41 L 149.605469 57.9375 L 7.875 57.9375 Z M 7.875 41 "/>
</clipPath>
<clipPath id="clip2">
  <path d="M 7.875 15 L 149.605469 15 L 149.605469 57.9375 L 7.875 57.9375 Z M 7.875 15 "/>
</clipPath>
</defs>
<g id="surface1">
<g clip-path="url(#clip1)" clip-rule="nonzero">
<path style="fill:none;stroke-width:1;stroke-linecap:square;stroke-linejoin:round;stroke:rgb(0%,100%,0%);stroke-opacity:1;stroke-miterlimit:10;" d="M -1 4.424905 L 10.066406 4.624124 L 17.160156 4.948342 L 22.738281 5.397561 L 27.804688 6.022561 L 32.367188 6.807717 L 36.925781 7.835061 L 41.488281 9.116311 L 46.050781 10.639749 L 51.625 12.756936 L 63.28125 17.295999 L 67.335938 18.585061 L 70.882812 19.456155 L 73.925781 19.97178 L 76.964844 20.245217 L 80.007812 20.268655 L 83.046875 20.03428 L 86.089844 19.557717 L 89.128906 18.862405 L 92.675781 17.811624 L 96.730469 16.374124 L 103.320312 13.772561 L 110.921875 10.823342 L 115.484375 9.272561 L 120.046875 7.963967 L 124.605469 6.90928 L 129.167969 6.100686 L 134.238281 5.448342 L 139.8125 4.979592 L 146.402344 4.655374 L 155.523438 4.456155 L 158.480469 4.424905 " transform="matrix(1,0,0,-1,0,62.299905)"/>
</g>
<g clip-path="url(#clip2)" clip-rule="nonzero">
<path style="fill:none;stroke-width:1;stroke-linecap:square;stroke-linejoin:round;stroke:rgb(100%,0%,0%);stroke-opacity:1;stroke-miterlimit:10;" d="M -1 4.362405 L 47.0625 4.460061 L 50.613281 4.717874 L 52.640625 5.053811 L 54.667969 5.635842 L 56.1875 6.319436 L 57.707031 7.276467 L 59.226562 8.588967 L 60.746094 10.323342 L 62.269531 12.53428 L 63.789062 15.256936 L 65.308594 18.495217 L 67.335938 23.499124 L 70.882812 33.241311 L 72.910156 38.495217 L 74.433594 41.81553 L 75.445312 43.592874 L 76.460938 44.952249 L 77.472656 45.842874 L 77.980469 46.100686 L 78.488281 46.229592 L 78.992188 46.229592 L 79.5 46.100686 L 80.007812 45.842874 L 81.019531 44.952249 L 82.035156 43.592874 L 83.046875 41.81553 L 84.570312 38.495217 L 86.597656 33.241311 L 91.15625 20.90928 L 92.675781 17.362405 L 94.199219 14.292092 L 95.71875 11.741311 L 97.238281 9.694436 L 98.757812 8.108499 L 100.28125 6.920999 L 101.800781 6.061624 L 103.320312 5.460061 L 105.347656 4.948342 L 107.882812 4.612405 L 111.429688 4.428811 L 118.527344 4.362405 L 158.480469 4.362405 " transform="matrix(1,0,0,-1,0,62.299905)"/>
</g>
<path style="fill:none;stroke-width:1;stroke-linecap:butt;stroke-linejoin:round;stroke:rgb(0%,0%,0%);stroke-opacity:1;stroke-miterlimit:10;" d="M 78.738281 4.362405 L 78.738281 7.862405 " transform="matrix(1,0,0,-1,0,62.299905)"/>
<path style="fill:none;stroke-width:1;stroke-linecap:square;stroke-linejoin:miter;stroke:rgb(0%,0%,0%);stroke-opacity:1;stroke-miterlimit:10;" d="M 7.875 4.362405 L 149.605469 4.362405 " transform="matrix(1,0,0,-1,0,62.299905)"/>
<path style=" stroke:none;fill-rule:nonzero;fill:rgb(0%,0%,100%);fill-opacity:1;" d="M 69.628906 59.742188 C 70.105469 59.742188 70.566406 59.550781 70.902344 59.214844 C 71.242188 58.875 71.429688 58.417969 71.429688 57.9375 C 71.429688 57.460938 71.242188 57.003906 70.902344 56.664062 C 70.566406 56.324219 70.105469 56.136719 69.628906 56.136719 C 69.152344 56.136719 68.691406 56.324219 68.355469 56.664062 C 68.015625 57.003906 67.824219 57.460938 67.824219 57.9375 C 67.824219 58.417969 68.015625 58.875 68.355469 59.214844 C 68.691406 59.550781 69.152344 59.742188 69.628906 59.742188 Z M 69.628906 59.742188 "/>
<path style=" stroke:none;fill-rule:nonzero;fill:rgb(0%,0%,100%);fill-opacity:1;" d="M 87.851562 59.742188 C 88.328125 59.742188 88.789062 59.550781 89.125 59.214844 C 89.464844 58.875 89.652344 58.417969 89.652344 57.9375 C 89.652344 57.460938 89.464844 57.003906 89.125 56.664062 C 88.789062 56.324219 88.328125 56.136719 87.851562 56.136719 C 87.375 56.136719 86.914062 56.324219 86.578125 56.664062 C 86.238281 57.003906 86.046875 57.460938 86.046875 57.9375 C 86.046875 58.417969 86.238281 58.875 86.578125 59.214844 C 86.914062 59.550781 87.375 59.742188 87.851562 59.742188 Z M 87.851562 59.742188 "/>
</g>
</svg>
