<?xml version="1.0" encoding="UTF-8"?>
<svg xmlns="http://www.w3.org/2000/svg" xmlns:xlink="http://www.w3.org/1999/xlink" width="157.480315pt" height="62.299905pt" viewBox="0 0 157.480315 62.299905" version="1.1">
<defs>
<clipPath id="clip1">
  <path d="M 7.875 41 L 149.605469 41 L 149.605469 57.9375 L 7.875 57.9375 Z M 7.875 41 "/>
</clipPath>
<clipPath id="clip2">
  <path d="M 7.875 15 L 149.605469 15 L 149.605469 57.9375 L 7.875 57.9375 Z M 7.875 15 "/>
</clipPath>
</defs>
<g id="surface1">
<g clip-path="url(#clip1)" clip-rule="nonzero">
<path style="fill:none;stroke-width:1;stroke-linecap:square;stroke-linejoin:round;stroke:rgb(17.254639%,62.744141%,17.254639%);stroke-opacity:1;stroke-miterlimit:10;" d="M -1 4.424905 L 10.066406 4.624124 L 17.160156 4.948342 L 22.738281 5.397561 L 27.804688 6.022561 L 32.367188 6.807717 L 36.925781 7.835061 L 41.488281 9.116311 L 46.050781 10.639749 L 51.625 12.756936 L 63.28125 17.295999 L 67.335938 18.585061 L 70.882812 19.456155 L 73.925781 19.97178 L 76.964844 20.245217 L 80.007812 20.268655 L 83.046875 20.03428 L 86.089844 19.557717 L 89.128906 18.862405 L 92.675781 17.811624 L 96.730469 16.374124 L 103.320312 13.772561 L 110.921875 10.823342 L 115.484375 9.272561 L 120.046875 7.963967 L 124.605469 6.90928 L 129.167969 6.100686 L 134.238281 5.448342 L 139.8125 4.979592 L 146.402344 4.655374 L 155.523438 4.456155 L 158.480469 4.424905 " transform="matrix(1,0,0,-1,0,62.299905)"/>
</g>
<g clip-path="url(#clip2)" clip-rule="nonzero">
<path style="fill:none;stroke-width:1;stroke-linecap:square;stroke-linejoin:round;stroke:rgb(83.920288%,15.293884%,15.686035%);stroke-opacity:1;stroke-miterlimit:10;" d="M -1 4.362405 L 21.722656 4.460061 L 25.269531 4.713967 L 27.296875 5.045999 L 29.324219 5.624124 L 30.84375 6.299905 L 32.367188 7.25303 L 33.886719 8.557717 L 35.40625 10.280374 L 36.925781 12.483499 L 38.449219 15.198342 L 39.96875 18.420999 L 41.996094 23.417092 L 45.035156 31.760842 L 47.570312 38.417092 L 49.089844 41.75303 L 50.105469 43.545999 L 51.117188 44.917092 L 52.132812 45.819436 L 52.640625 46.085061 L 53.144531 46.225686 L 53.652344 46.233499 L 54.160156 46.112405 L 54.667969 45.862405 L 55.679688 44.987405 L 56.695312 43.643655 L 57.707031 41.87803 L 59.226562 38.569436 L 61.253906 33.331155 L 65.816406 20.987405 L 67.335938 17.428811 L 68.855469 14.350686 L 70.378906 11.788186 L 71.898438 9.729592 L 73.417969 8.135842 L 74.9375 6.944436 L 76.460938 6.077249 L 77.980469 5.47178 L 80.007812 4.956155 L 82.542969 4.616311 L 86.089844 4.428811 L 93.183594 4.362405 L 158.480469 4.362405 " transform="matrix(1,0,0,-1,0,62.299905)"/>
</g>
<path style="fill:none;stroke-width:1;stroke-linecap:butt;stroke-linejoin:round;stroke:rgb(0%,0%,0%);stroke-opacity:1;stroke-miterlimit:10;" d="M 78.738281 4.362405 L 78.738281 7.862405 " transform="matrix(1,0,0,-1,0,62.299905)"/>
<path style="fill:none;stroke-width:1;stroke-linecap:square;stroke-linejoin:miter;stroke:rgb(0%,0%,0%);stroke-opacity:1;stroke-miterlimit:10;" d="M 7.875 4.362405 L 149.605469 4.362405 " transform="matrix(1,0,0,-1,0,62.299905)"/>
<path style=" stroke:none;fill-rule:nonzero;fill:rgb(83.920288%,15.293884%,15.686035%);fill-opacity:1;" d="M 44.320312 59.742188 C 44.796875 59.742188 45.257812 59.550781 45.59375 59.214844 C 45.933594 58.875 46.121094 58.417969 46.121094 57.9375 C 46.121094 57.460938 45.933594 57.003906 45.59375 56.664062 C 45.257812 56.324219 44.796875 56.136719 44.320312 56.136719 C 43.839844 56.136719 43.382812 56.324219 43.042969 56.664062 C 42.707031 57.003906 42.515625 57.460938 42.515625 57.9375 C 42.515625 58.417969 42.707031 58.875 43.042969 59.214844 C 43.382812 59.550781 43.839844 59.742188 44.320312 59.742188 Z M 44.320312 59.742188 "/>
<path style=" stroke:none;fill-rule:nonzero;fill:rgb(83.920288%,15.293884%,15.686035%);fill-opacity:1;" d="M 62.542969 59.742188 C 63.019531 59.742188 63.480469 59.550781 63.816406 59.214844 C 64.15625 58.875 64.34375 58.417969 64.34375 57.9375 C 64.34375 57.460938 64.15625 57.003906 63.816406 56.664062 C 63.480469 56.324219 63.019531 56.136719 62.542969 56.136719 C 62.0625 56.136719 61.605469 56.324219 61.265625 56.664062 C 60.929688 57.003906 60.738281 57.460938 60.738281 57.9375 C 60.738281 58.417969 60.929688 58.875 61.265625 59.214844 C 61.605469 59.550781 62.0625 59.742188 62.542969 59.742188 Z M 62.542969 59.742188 "/>
</g>
</svg>
